# xmcd
#
# Track frame offsets:
#	150
#	12158
#	25569
#	38573
#	52256
#	64409
#	80253
#	94028
#	107770
#	120971
#
# Disc length: 1770 seconds
#
# Revision: 0
# Processed by: cddbd v1.5.2PL0 Copyright (c) Steve Scherf et al.
# Submitted via: dBpowerAMP V4.0
#
DISCID=7106e80a
DTITLE=Tanya Tucker and Tammy Wynett - Tanya Tucker and Tammy Wynett
DYEAR=2006
DGENRE=Country
TTITLE0=Till I Get It Right (Tammy Wynette)
TTITLE1=D-I-V-O-R-C-E (Tammy Wynett)
TTITLE2=My Elusive Dreams (Tammy Wynett and David Houston)
TTITLE3=Golden Ring (Tammy Wynett and George Jones)
TTITLE4=Two Story House (Tammy Wynett and George Jones)
TTITLE5=The Wonders You Perform (Tammy Wynett)
TTITLE6=Blood Red And Goin' Down (Tanya Tucker)
TTITLE7=I Believe The south Is Goint To Rise Again (Tanya Tucker)
TTITLE8=The Man That Turned My Mama On (Tanya Tucker)
TTITLE9=The Chokin' Kind (Tanya Tucker)
EXTD=
EXTT0=
EXTT1=
EXTT2=
EXTT3=
EXTT4=
EXTT5=
EXTT6=
EXTT7=
EXTT8=
EXTT9=
PLAYORDER=
